<svg aria-hidden="true" style="width:0;height:0;position:absolute;overflow:hidden" xmlns="http://www.w3.org/2000/svg"><defs><symbol id="shopping-cart" viewBox="0 0 32 32"><path d="M4.8 1.6a1.6 1.6 0 0 0 0 3.2h1.952l.488 1.955.016.067 2.173 8.688L8 16.937c-2.016 2.016-.589 5.462 2.262 5.462h13.737a1.6 1.6 0 0 0 0-3.2H10.261l1.6-1.6h10.537a1.602 1.602 0 0 0 1.431-.885l4.8-9.6c.122-.244.18-.515.167-.787s-.094-.537-.237-.769a1.597 1.597 0 0 0-1.36-.759H10.047L9.551 2.81a1.601 1.601 0 0 0-1.552-1.212h-3.2zm20.8 24.8a2.4 2.4 0 1 1-4.799 0 2.4 2.4 0 0 1 4.799 0zm-15.2 2.4a2.401 2.401 0 1 0-.001-4.802A2.401 2.401 0 0 0 10.4 28.8z"/></symbol><symbol id="cabbage" viewBox="0 0 32 32"><path d="M17.488 4.624a5.36 5.36 0 0 0-1.817-1.707c-2.011-1.153-4.601-.951-6.992.388C4.24 5.792 1.334 10.466 1.334 16c0 7.387 5.347 13.351 12.329 14.48a14.67 14.67 0 0 0 2.337.187 14.625 14.625 0 0 0 10.426-4.32 14.605 14.605 0 0 0 4.24-10.459c-.031-2.576-1.064-5.737-2.697-8.264-1.627-2.517-4.128-4.811-7.236-4.781-1.517.003-2.553.837-3.245 1.784v-.001zm8.873 5.527a6.332 6.332 0 0 0-1.684-.044l-1.547-2.6-2.291 1.36 1.189 2a9.055 9.055 0 0 0-1.42.833 7.286 7.286 0 0 0-.024-.077c-.356-1.08-1.044-1.967-1.961-2.848l.005-.027c.092-.431.239-.987.459-1.527.497-1.221 1.075-1.716 1.653-1.716h.015c1.721-.019 3.515 1.303 4.975 3.561.227.351.437.712.632 1.083l-.001.001zm-8.214 3.996c-.44.011-.892.06-1.333.156a5.013 5.013 0 0 0-1.416-1.527c-1.053-.74-2.496-1.107-4.056-.524a18.259 18.259 0 0 0-.432-.241l4.311-4.225-1.867-1.904-5.113 5.012c-1.08-.313-2.089-.425-2.996-.3a11.607 11.607 0 0 1 4.74-4.963c1.819-1.019 3.383-.963 4.361-.401.933.535 1.708 1.748 1.513 3.916l-.06.671.504.447c1.096.969 1.552 1.596 1.749 2.195.139.42.184.928.095 1.689zm-3.747 1.34c-1.139.953-1.903 2.291-2.347 3.736L8.088 14.87l-1.972 1.797 5.451 5.984c-.007 1.589.197 3.216.493 4.687A11.933 11.933 0 0 1 4 16.001c0-1.387.385-2.143.839-2.473.428-.315 1.368-.572 3.293.139.696.257 1.501.652 2.423 1.225l.669.416.688-.387c.831-.467 1.465-.301 1.952.04.213.149.396.336.536.527zm2.353 12.489 9.723-10.716-1.975-1.792-3.909 4.308.009-1.352-2.667-.019-.031 4.333-3.311 3.649c-.251-1.361-.4-2.824-.352-4.196.085-2.34 1.02-4.263 2.403-5.024.573-.316 1.585-.44 2.385-.299l1.187.207.327-1.159c.171-.604.623-1.251 1.329-1.827a6.365 6.365 0 0 1 2.445-1.221c1.068-.261 1.979-.125 2.579.288.524.36 1.051 1.096 1.1 2.605v.024l.004.213a11.947 11.947 0 0 1-11.246 11.976z"/></symbol><symbol id="search" viewBox="0 0 32 32"><path d="M20.667 18.667h-1.053l-.373-.36a8.625 8.625 0 0 0 2.093-5.64 8.668 8.668 0 0 0-5.35-8.007A8.66 8.66 0 0 0 6.54 6.539a8.67 8.67 0 0 0-1.879 9.444 8.671 8.671 0 0 0 8.007 5.35 8.63 8.63 0 0 0 5.64-2.093l.36.373v1.053l6.667 6.653 1.987-1.987-6.653-6.667zm-8 0c-3.32 0-6-2.68-6-6s2.68-6 6-6 6 2.68 6 6-2.68 6-6 6z"/></symbol><symbol id="down-vector" viewBox="0 0 48 32"><path stroke-linejoin="round" stroke-linecap="round" stroke-width="8" d="m4 6 20 20L44 6"/></symbol><symbol id="close-cross" viewBox="0 0 32 32"><path d="M25 9.093 22.907 7 16 13.907 9.093 7 7 9.093 13.907 16 7 22.907 9.093 25 16 18.093 22.907 25 25 22.907 18.093 16 25 9.093z"/></symbol><symbol id="leaf" viewBox="0 0 32 32"><path d="M22.667 10.667c-12 2.667-14.8 10.893-17.573 17.787l2.52.88 1.267-3.067c.64.227 1.307.4 1.787.4C25.335 26.667 29.335 4 29.335 4c-1.333 2.667-10.667 3-17.333 4.333s-9.333 7-9.333 9.667 2.333 5 2.333 5c4.333-12.333 17.667-12.333 17.667-12.333z"/></symbol><symbol id="check" viewBox="0 0 32 32"><path stroke-linejoin="round" stroke-linecap="round" stroke-width="3.556" d="M26.667 8 12 22.667 5.333 16"/></symbol><symbol id="icon-caret-small-left" viewBox="0 0 32 32"><path stroke-linejoin="round" stroke-linecap="round" stroke-width="2" d="M18.667 21.333 13.334 16l5.333-5.333"/></symbol><symbol id="icon-Frame-52" viewBox="0 0 32 32"><path d="M19.52 4.64h.96v3.6h-1.2c-.48 0-.96 0-1.2.24s-.24.48-.24 1.04v1.28h2.64v3.04h-2.64v13.2h-4.08V13.76H11.6v-3.04h2.16V9.68c0-1.76.24-3.04.72-3.6.72-1.04 2.16-1.52 4.32-1.52.24.08.48.08.72.08z"/></symbol><symbol id="icon-Frame-60" viewBox="0 0 32 32"><path opacity=".8" d="M24.24 6c-1.36-.08-4.16-.16-8.4-.16h-.56c-4.08 0-6.8.08-8.16.24-1.84.16-3.12.64-3.84 1.28-.64.56-1.12 1.6-1.28 2.96-.08.88-.16 2.72-.16 5.52v.4c0 2.64.08 4.48.24 5.36.24 1.28.64 2.24 1.44 2.8.8.64 2.16 1.04 4.08 1.2 1.36.08 4.16.16 8.4.16h.56c4.08 0 6.8-.08 8.16-.24 1.84-.16 3.12-.64 3.84-1.28.64-.56 1.12-1.6 1.28-2.96.08-.88.16-2.72.16-5.52v-.4c0-2.64-.08-4.48-.24-5.36-.24-1.28-.64-2.24-1.44-2.8-.8-.64-2.16-1.04-4.08-1.2zm-3.12 9.84-8.8 5.28V10.56l8.8 5.28z"/></symbol><symbol id="icon-instagram" viewBox="0 0 32 32"><path opacity=".8" d="M28.718 10.756a9.264 9.264 0 0 0-.596-3.145 6.547 6.547 0 0 0-3.743-3.737 9.42 9.42 0 0 0-3.108-.596c-1.368-.061-1.801-.078-5.273-.078s-3.916 0-5.274.078a9.413 9.413 0 0 0-3.106.596 6.541 6.541 0 0 0-3.743 3.737 9.288 9.288 0 0 0-.596 3.101c-.061 1.367-.08 1.8-.08 5.265s0 3.909.08 5.265a9.335 9.335 0 0 0 .596 3.104 6.548 6.548 0 0 0 3.744 3.735 9.37 9.37 0 0 0 3.106.639c1.369.061 1.803.08 5.274.08s3.916 0 5.274-.08a9.362 9.362 0 0 0 3.108-.595 6.555 6.555 0 0 0 3.743-3.737 9.35 9.35 0 0 0 .596-3.104c.061-1.365.08-1.798.08-5.265-.003-3.466-.003-3.906-.082-5.264zM15.99 22.531c-3.631 0-6.572-2.936-6.572-6.561s2.941-6.561 6.572-6.561c3.628 0 6.572 2.936 6.572 6.561s-2.944 6.561-6.572 6.561zm6.834-11.835a1.53 1.53 0 1 1 0-3.06 1.53 1.53 0 1 1 0 3.06z"/><path opacity=".8" d="M15.992 19.976a4.004 4.004 0 1 0 0-8.009 4.004 4.004 0 0 0 0 8.009z"/></symbol><symbol id="icon-Food-Boutique" viewBox="0 0 227 32"><path d="M0 22.964c1.711-.209 2.653-.977 2.653-2.339V6.417c0-1.361-.943-2.164-2.653-2.339V2.682h17.734c.314 0 .454.105.489.349.105 1.047.175 2.095.733 4.643h-.873c-1.222-2.129-2.269-3.247-4.329-3.247h-2.967c-1.571 0-2.234.873-2.234 2.269v3.665c0 1.396.663 2.164 2.234 2.164h1.396c2.828 0 3.351-.663 3.631-2.234h.768v6.214h-.768c-.279-1.466-.803-2.199-3.631-2.199h-1.396c-1.571 0-2.234.768-2.234 2.164v4.154c0 1.361.943 2.129 3.002 2.339v1.396H0v-1.396zM27.766 24.57c-4.294 0-8.657-2.583-8.657-8.239 0-5.62 4.364-8.029 8.553-8.029 4.329 0 8.657 2.583 8.657 8.239 0 5.62-4.329 8.029-8.553 8.029zm-3.072-9.774c0 4.329 1.431 8.169 3.665 8.169 1.361 0 2.374-1.361 2.374-4.957 0-4.294-1.361-8.134-3.665-8.134-1.396 0-2.374 1.396-2.374 4.922zM46.534 24.57c-4.294 0-8.657-2.583-8.657-8.239 0-5.62 4.364-8.029 8.553-8.029 4.329 0 8.657 2.583 8.657 8.239 0 5.62-4.329 8.029-8.553 8.029zm-3.072-9.774c0 4.329 1.431 8.169 3.665 8.169 1.361 0 2.374-1.361 2.374-4.957 0-4.294-1.361-8.134-3.665-8.134-1.396 0-2.374 1.396-2.374 4.922zM63.312 24.57c-3.281 0-6.668-2.688-6.668-7.855 0-5.551 3.805-8.413 7.505-8.413 3.84 0 4.852 3.002 4.852-.524V5.683c0-1.641-.908-1.92-2.199-1.815V2.507l5.69-.943c1.187-.175 1.745.349 1.745 1.396v17.839c0 1.152.454 1.92 1.466 1.501v.768c-.489 1.187-1.745 1.501-2.828 1.501-1.187 0-2.688-.384-3.107-1.431-.279-.663-.593-1.012-1.117-1.012-.698 0-2.095 2.444-5.341 2.444zm-1.048-9.67c0 3.456 1.536 6.842 3.77 6.842 1.361 0 2.967-.977 2.967-3.91v-1.641c0-4.538-2.129-6.319-3.875-6.319-1.78 0-2.863 2.199-2.863 5.027zM83.032 22.964c1.711-.209 2.653-.977 2.653-2.339V6.452c0-1.396-.943-2.199-2.653-2.374V2.682h10.787c6.842 0 10.228 1.641 10.228 5.167 0 1.99-1.152 3.945-5.132 4.573 4.468.628 6.388 2.723 6.388 5.69 0 4.049-3.596 6.249-8.483 6.249-2.793 0-8.727-.873-13.789 0v-1.396zm8.553-1.815c0 .908.559 1.327 1.571 1.327h1.222c2.653 0 4.643-1.012 4.643-4.399 0-3.281-2.025-4.713-5.865-4.713-.908 0-1.571.698-1.571 2.095v5.69zm0-11.555c0 1.396.663 2.095 2.234 2.095h.908c2.409 0 3.037-1.885 3.037-3.491 0-2.444-1.327-3.805-3.596-3.805h-.349c-1.571 0-2.234.733-2.234 2.129v3.072zM115.537 24.57c-4.294 0-8.657-2.583-8.657-8.239 0-5.62 4.364-8.029 8.553-8.029 4.329 0 8.657 2.583 8.657 8.239 0 5.62-4.329 8.029-8.553 8.029zm-3.072-9.774c0 4.329 1.431 8.169 3.665 8.169 1.361 0 2.374-1.361 2.374-4.957 0-4.294-1.361-8.134-3.665-8.134-1.396 0-2.374 1.396-2.374 4.922zM131.677 24.57c-2.444 0-5.097-1.012-5.097-6.493v-5.551c0-1.606-.908-1.885-2.199-1.85V9.315l5.69-.943c1.187-.175 1.745.349 1.745 1.396v7.471c0 2.444 1.012 4.189 2.897 4.189 1.92 0 2.897-1.745 2.897-4.189v-4.713c0-1.606-.908-1.885-2.199-1.85V9.315l5.655-.943c1.222-.175 1.78.349 1.78 1.396v11.031c0 1.152.454 1.92 1.466 1.501v.768c-.489 1.187-1.745 1.501-2.932 1.501-2.513 0-3.212-1.571-3.386-2.339-.105-.489-.384-.733-.628-.733s-.419.209-.593.454c-.977 1.327-2.339 2.618-5.097 2.618zM152.495 24.535c-3.212 0-5.167-1.78-5.167-5.167v-7.645c0-1.222-.279-1.466-1.082-1.466h-1.571V9.14c2.897-.663 4.294-1.99 5.481-3.91.279-.454.524-.593.977-.593h.628c.524 0 .838.314.838.838l-.035 2.164c0 .768.384.977 2.164.977h2.269v1.85l-2.269-.14c-1.78-.105-2.164.209-2.164 1.466v7.401c0 1.92.209 3.212 1.92 3.212.454 0 1.152-.07 1.815-.559.454.559.628 1.047.175 1.466-.803.698-2.234 1.222-3.98 1.222zM158.406 22.999c1.606-.105 2.199-.628 2.199-2.513v-7.994c0-1.641-.908-1.92-2.164-1.815V9.316l5.655-.943c1.187-.175 1.745.349 1.745 1.396v10.717c0 1.885.593 2.409 2.164 2.513v1.361h-9.6v-1.361zm1.361-19.025c0-1.676 1.396-2.967 3.037-2.967 1.606 0 2.967 1.292 2.967 2.967s-1.361 2.967-2.967 2.967c-1.641 0-3.037-1.292-3.037-2.967zM178.431 29.667c1.99-.14 2.583-.663 2.583-2.409v-3.735c0-.628-.314-.838-.628-.838a.692.692 0 0 0-.489.209c-.698.698-2.199 1.676-4.399 1.676-3.596 0-6.912-2.653-6.912-7.785 0-5.585 3.875-8.483 7.889-8.483 3.491 0 4.957 2.129 6.249 2.129 1.222 0 1.711-2.095 2.688-2.095.628 0 .838.349.838.838v18.083c0 1.745.593 2.269 2.164 2.409v1.327h-9.984v-1.327zm-4.224-14.802c0 3.456 1.466 6.877 3.91 6.877 1.327 0 2.863-.977 2.897-4.887-.035-5.236-2.199-6.982-3.945-6.982-1.885 0-2.863 2.199-2.863 4.992zM195.191 24.57c-2.444 0-5.097-1.012-5.097-6.493v-5.551c0-1.606-.908-1.885-2.199-1.85V9.315l5.69-.943c1.187-.175 1.745.349 1.745 1.396v7.471c0 2.444 1.012 4.189 2.897 4.189 1.92 0 2.897-1.745 2.897-4.189v-4.713c0-1.606-.908-1.885-2.199-1.85V9.315l5.655-.943c1.222-.175 1.78.349 1.78 1.396v11.031c0 1.152.454 1.92 1.466 1.501v.768c-.489 1.187-1.745 1.501-2.932 1.501-2.513 0-3.212-1.571-3.386-2.339-.105-.489-.384-.733-.628-.733s-.419.209-.593.454c-.977 1.327-2.339 2.618-5.097 2.618zM217.917 24.57c-4.364 0-8.692-2.513-8.692-7.994 0-5.725 4.678-8.273 9.007-8.273 3.7 0 6.703 1.85 6.703 4.922 0 3.142-3.037 3.316-6.109 3.561l-2.723.209c-.593.035-.908.314-.908 1.117 0 2.583 2.793 3.735 5.097 3.735 1.222 0 2.897-.349 4.154-1.78l1.047.943c-.663 1.361-3.491 3.561-7.575 3.561zm-2.967-10.438c0 1.012.244 1.536 1.152 1.501l1.257-.14c2.409-.244 2.897-.873 2.897-2.234 0-1.676-.698-3.351-2.513-3.351-2.269 0-2.793 2.548-2.793 4.224z"/></symbol><symbol id="organic-food" viewBox="0 0 100 100" fill="none"><circle cx="50" cy="50" r="50" fill="#FDC152"/><path d="M78.668 53.693c.325-2.54 2.283-3.854 4.807-3.531 2.523.323 4.088 2.087 3.763 4.627-.324 2.539-2.283 3.853-4.806 3.53-2.524-.322-4.088-2.087-3.764-4.626Zm1.365.174c-.203 1.588.945 2.573 2.612 2.786 1.682.215 3.026-.452 3.229-2.039.203-1.587-.93-2.57-2.612-2.786-1.667-.213-3.026.452-3.229 2.04ZM84.802 64.112c-.096.272-.18.462-.29.678l-1.494-.529.01-.03c.796-1.432.203-3.017-1.441-3.6L77.65 59.24l.56-1.584 7.708 2.728-.56 1.584-1.448-.513-.011.03c.821.749 1.26 1.617.903 2.628ZM80.686 71.31l-.887 1.428-6.47-4.018c-1.998-1.24-2.13-2.999-.907-4.97 1.241-1.998 2.971-2.45 4.233-1.873l-.894 1.441c-.697-.244-1.462-.041-2.163 1.087-.743 1.196-.579 2.145.672 2.922l.843.523.016-.027c-.288-.688-.408-1.647.275-2.748 1.08-1.74 3.1-2.294 5.29-.935 2.201 1.367 2.587 3.415 1.507 5.154-.684 1.102-1.597 1.42-2.314 1.483l-.017.027.816.506Zm-4.281-5.238c-.718 1.156-.387 2.322 1.081 3.233s2.66.69 3.377-.465c.777-1.25.235-2.471-1.056-3.273-1.278-.793-2.626-.745-3.402.505ZM73.309 76.33c.408.43.971.512 1.783-.26.974-.926 1.047-1.569.378-2.39l1.183-1.124c1.022 1.192 1.14 2.78-.646 4.477-1.31 1.245-2.759 1.673-4.258.095l-2.678-2.818c-.397-.418-.7-.55-1.13-.051l-.552-.58c.18-.37.355-.58.587-.8.649-.617 1.171-.672 1.838-.202l.023-.022c-.125-.875.206-1.874 1.123-2.745 1.206-1.146 2.61-1.156 3.557-.158 1.235 1.299.658 2.62-.551 4.32-.75 1.045-1.197 1.69-.657 2.258Zm-1.701-5.204c-1.01.96-1.231 2.12-.316 3.082l.848.893c.065-.326.409-.918.867-1.574.8-1.179.964-1.888.391-2.49-.518-.546-1.13-.539-1.79.09ZM67.445 83.192c-1.334.73-2.809.533-3.707-1.11l-2.71-4.955 1.488-.814 2.48 4.534c.53.969 1.274 1.364 2.285.811 1.137-.621 1.49-1.709.907-2.775l-2.387-4.366 1.474-.806 3.923 7.173-1.474.806-.507-.926-.028.015c-.072.769-.509 1.737-1.744 2.413ZM62.288 86.62c.44-.144.996.013 1.174.56.178.548-.185.986-.626 1.129-.472.153-1.007.007-1.185-.54-.178-.549.165-.996.637-1.15Zm.366-1.566-1.598.519-2.524-7.777 1.598-.519 2.524 7.777ZM52.593 84.173c.17.817.821 1.75 2.25 1.567 1.634-.209 2.154-1.694 1.96-3.218-.196-1.524-1.057-2.833-2.707-2.622-1.429.183-1.827 1.234-1.774 2.146l-1.667.213c-.112-1.889 1.155-3.454 3.266-3.724 2.428-.31 4.223 1.235 4.547 3.774.325 2.54-1.023 4.486-3.435 4.794-2.111.27-3.664-.902-4.106-2.717l1.666-.213ZM36.383 86.66c1.024.37 1.455.386 1.731-.5l.267-.855-1.435-.448.41-1.313 1.435.448 2.026-6.492 1.619.506-2.026 6.49 1.115.349-.41 1.313L40 85.81l-.31.993c-.514 1.65-1.398 2.01-2.681 1.61a5.9 5.9 0 0 1-1.036-.44l.41-1.314ZM36.261 75.218c2.242 1.236 2.743 3.541 1.514 5.769-1.228 2.227-3.445 3.033-5.687 1.796-2.241-1.236-2.742-3.541-1.514-5.769 1.23-2.227 3.446-3.033 5.687-1.796Zm-.664 1.205c-1.401-.773-2.74-.068-3.552 1.403-.819 1.485-.693 2.98.708 3.752 1.4.773 2.732.082 3.551-1.403.812-1.47.694-2.98-.707-3.752Z" fill="#010101"/><path d="M30.317 70.858c1.855 1.763 1.757 4.12.004 5.964-1.752 1.844-4.1 2.062-5.957.298-1.855-1.763-1.757-4.12-.004-5.964 1.752-1.844 4.1-2.062 5.957-.298Zm-.948.997c-1.16-1.102-2.634-.76-3.791.459-1.169 1.229-1.425 2.707-.266 3.809 1.16 1.102 2.623.77 3.791-.459 1.158-1.217 1.425-2.707.266-3.809Z" fill="#010101"/><path d="m14.638 69.465-.865-1.44 9.807-5.891.865 1.44-.81.486.017.027c.703.082 1.65.447 2.3 1.53 1.08 1.797.48 3.968-1.824 5.352-2.304 1.384-4.503.894-5.582-.903-.65-1.083-.555-2.074-.243-2.765l-.016-.028-3.649 2.192Zm9.987-3.386c-.709-1.18-2.12-1.322-3.67-.39-1.563.939-2.086 2.242-1.378 3.422.758 1.262 2.314 1.242 3.686.418 1.371-.824 2.12-2.188 1.362-3.45ZM21.402 51.173c.1 2.558-1.616 4.177-4.158 4.275-2.542.098-4.377-1.384-4.475-3.942-.1-2.558 1.616-4.178 4.158-4.276 2.542-.098 4.377 1.385 4.475 3.943Zm-1.375.053c-.061-1.6-1.357-2.382-3.035-2.317-1.695.066-2.91.945-2.848 2.544.061 1.599 1.34 2.382 3.035 2.316 1.68-.064 2.91-.944 2.848-2.543ZM13.652 41.75c.05-.283.103-.485.177-.716l1.559.28-.006.03c-.552 1.544.29 3.01 2.007 3.318l4.111.735-.296 1.654-8.048-1.44.296-1.653 1.512.27.005-.031c-.931-.606-1.506-1.391-1.317-2.447ZM16.52 34.015l.643-1.552 7.037 2.915c2.172.9 2.588 2.613 1.7 4.757-.9 2.173-2.534 2.899-3.872 2.535l.649-1.567c.726.127 1.45-.197 1.957-1.424.54-1.3.224-2.21-1.137-2.774l-.916-.38-.012.03c.396.632.67 1.56.174 2.757-.783 1.892-2.687 2.766-5.067 1.78-2.394-.992-3.108-2.95-2.324-4.841.496-1.198 1.346-1.66 2.043-1.839l.012-.03-.887-.367Zm5.074 4.475c.52-1.257.005-2.354-1.591-3.015-1.597-.661-2.737-.25-3.257 1.006-.563 1.36.169 2.478 1.573 3.06 1.39.575 2.712.309 3.275-1.051ZM22.986 27.851c-.47-.358-1.04-.35-1.719.541-.814 1.07-.784 1.716.008 2.42l-.988 1.298c-1.2-1.014-1.569-2.562-.076-4.522 1.095-1.439 2.457-2.091 4.188-.773l3.093 2.356c.458.349.778.43 1.124-.13l.637.485a2.53 2.53 0 0 1-.451.883c-.543.713-1.05.85-1.783.493l-.02.025c.263.843.095 1.882-.67 2.888-1.008 1.324-2.393 1.557-3.487.723-1.426-1.085-1.067-2.481-.145-4.353.575-1.15.913-1.859.29-2.334Zm2.509 4.867c.843-1.108.877-2.288-.179-3.093l-.98-.746c-.012.332-.257.97-.605 1.691-.601 1.292-.651 2.018.01 2.522.6.456 1.201.351 1.754-.374ZM27.565 20.193c1.196-.938 2.683-.987 3.839.486l3.486 4.443-1.334 1.047-3.19-4.066c-.682-.868-1.482-1.135-2.388-.424-1.02.8-1.19 1.93-.44 2.887l3.073 3.915-1.322 1.037-5.047-6.432 1.321-1.037.652.83.026-.02c-.056-.77.216-1.797 1.324-2.666ZM32.169 15.904c-.412.214-.985.15-1.25-.36-.266-.512.02-1.003.433-1.216.44-.229.992-.172 1.257.339.265.511 0 1.009-.44 1.237Zm-.105 1.605 1.491-.773 3.763 7.258-1.492.773-3.763-7.258ZM42.14 16.723c-.3-.779-1.096-1.593-2.475-1.18-1.579.473-1.85 2.024-1.408 3.496.44 1.47 1.504 2.622 3.098 2.144 1.38-.413 1.6-1.515 1.4-2.407l1.609-.482c.42 1.845-.576 3.597-2.614 4.208-2.345.702-4.368-.529-5.103-2.981-.734-2.452.278-4.593 2.607-5.291 2.039-.611 3.763.292 4.495 2.01l-1.61.483ZM57.66 11.623c-1.07-.198-1.497-.144-1.626.775l-.124.887 1.49.208-.19 1.363-1.49-.208-.94 6.735-1.68-.235.94-6.734-1.156-.162.19-1.363 1.157.162.143-1.03c.24-1.712 1.052-2.212 2.383-2.026.412.057.77.156 1.094.266l-.19 1.362ZM59.676 22.877c-2.414-.854-3.284-3.046-2.435-5.444.849-2.398 2.904-3.555 5.318-2.7 2.413.854 3.283 3.046 2.434 5.444-.848 2.398-2.904 3.555-5.317 2.7Zm.459-1.297c1.508.534 2.714-.38 3.275-1.964.566-1.598.198-3.052-1.31-3.586-1.509-.534-2.71.365-3.276 1.963-.56 1.584-.197 3.053 1.31 3.587Z" fill="#010101"/><path d="M66.156 26.128c-2.118-1.437-2.406-3.778-.978-5.883 1.428-2.105 3.71-2.704 5.828-1.267 2.119 1.437 2.406 3.778.978 5.883-1.428 2.106-3.709 2.704-5.828 1.267Zm.773-1.138c1.324.898 2.722.319 3.665-1.072.952-1.403.964-2.903-.36-3.801-1.324-.898-2.713-.333-3.665 1.071-.944 1.39-.964 2.904.36 3.802ZM82.023 25.095l1.085 1.283-8.737 7.385-1.084-1.283.72-.609-.02-.024c-.707.031-1.7-.177-2.516-1.142-1.353-1.6-1.109-3.84.944-5.575 2.053-1.735 4.301-1.604 5.654-.003.817.965.88 1.958.683 2.691l.02.024 3.251-2.747Zm-9.315 4.941c.888 1.051 2.303.965 3.684-.202 1.393-1.177 1.701-2.548.813-3.599-.95-1.124-2.483-.855-3.705.178s-1.742 2.5-.792 3.623ZM55 46c-9 2-11.1 8.17-13.18 13.34l1.89.66.95-2.3c.48.17.98.3 1.34.3 11 0 14-17 14-17-1 2-8 2.25-13 3.25s-7 5.25-7 7.25 1.75 3.75 1.75 3.75C45 46 55 46 55 46Z" fill="#010101"/></symbol><symbol id="discount" viewBox="0 0 60 60" fill="none"><circle cx="30" cy="30" r="30" fill="#6D8434"/><path d="m50.525 39.117-.437 1.182-8.05-2.966.436-1.182.664.245.009-.023c-.282-.45-.514-1.174-.185-2.063.544-1.475 2.096-2.143 3.988-1.446 1.892.697 2.637 2.212 2.092 3.686-.328.89-.953 1.299-1.504 1.441l-.008.023 2.995 1.103Zm-6.67-4.248c-.357.968.222 1.86 1.494 2.328 1.284.473 2.293.167 2.65-.8.383-1.036-.36-1.936-1.486-2.351-1.126-.415-2.275-.212-2.658.823ZM47.049 42.242c.206-.28.612-.43.961-.174.349.255.32.68.114.96-.22.3-.61.446-.958.191-.349-.255-.337-.677-.117-.977Zm-.464-1.112-.745 1.016-4.951-3.618.745-1.016 4.95 3.618ZM40.928 43.693c-1.04.513-2.145 1.096-3.077-.032-.75-.906-.438-2.111.711-3.057 1.529-1.258 2.775-1.088 3.647-.127l-.945.778c-.466-.47-1.048-.722-2.049.101-.676.557-.688 1.127-.443 1.423.489.592 1.092.173 1.925-.233.895-.442 2.037-1.133 2.924-.06.642.777.468 1.961-.717 2.938-1.288 1.06-2.473.87-3.218.1l.945-.779c.37.317.87.544 1.629-.082.583-.48.715-.961.44-1.294-.398-.481-.956-.084-1.772.324ZM34.407 47.179c.247.575.866 1.163 1.888.816 1.17-.398 1.33-1.567.957-2.657-.372-1.09-1.202-1.924-2.384-1.522-1.022.347-1.157 1.178-.981 1.841l-1.193.405c-.367-1.37.33-2.71 1.841-3.223 1.739-.59 3.29.277 3.91 2.094.62 1.817-.078 3.448-1.805 4.035-1.511.513-2.83-.117-3.427-1.384l1.194-.405ZM29.262 43.585c1.916.117 2.997 1.517 2.882 3.422-.116 1.904-1.359 3.163-3.275 3.046-1.916-.117-2.997-1.518-2.882-3.422.116-1.905 1.359-3.163 3.275-3.046Zm-.063 1.03c-1.198-.074-1.878.835-1.954 2.092-.077 1.27.489 2.242 1.687 2.316 1.197.073 1.877-.823 1.954-2.093.076-1.258-.489-2.242-1.687-2.315ZM20.195 47.39l-1.134-.55 2.683-5.514 1.133.55-.346.712.021.01c.502-.29 1.284-.444 2.234.017 1.026.498 1.547 1.484.932 2.747l-1.853 3.81-1.144-.556 1.696-3.486c.362-.744.28-1.37-.498-1.748-.874-.424-1.693-.168-2.092.652l-1.633 3.356ZM14.687 43.044c-.76-.85-.87-1.959.178-2.894l3.16-2.82.85.946-2.892 2.582c-.618.551-.78 1.162-.203 1.805.649.724 1.504.797 2.184.19l2.784-2.486.841.939-4.574 4.083-.841-.938.59-.527-.015-.018c-.575.078-1.357-.076-2.062-.862ZM12.089 36.33l.474 1.05 3.031-1.365c.635-.286.573-.626.193-1.35l.941-.424c.159.205.305.442.444.748.415.919.227 1.609-.955 2.14l-3.13 1.41.367.808-.941.424-.366-.81-1.762.794-.524-1.159 1.761-.793-.474-1.05.94-.423ZM8.426 23.714l.274-1.23 8.375 1.863-.274 1.23-.69-.154-.006.024c.34.407.666 1.095.46 2.02-.342 1.534-1.79 2.405-3.757 1.967-1.968-.438-2.91-1.84-2.568-3.374.206-.925.77-1.415 1.297-1.63l.005-.023-3.116-.693Zm7.178 3.318c.225-1.007-.469-1.813-1.792-2.108-1.336-.297-2.294.142-2.518 1.15-.24 1.077.616 1.87 1.787 2.13 1.172.26 2.284-.094 2.524-1.172ZM11.442 20.153c-.166.305-.549.507-.929.301-.38-.206-.408-.63-.242-.936.178-.327.545-.524.925-.318.38.206.424.626.246.953Zm.61 1.04.601-1.107 5.39 2.923-.601 1.107-5.39-2.923ZM17.327 17.876c.963-.645 1.982-1.369 3.054-.372.862.8.71 2.036-.305 3.124-1.35 1.448-2.608 1.442-3.598.604l.835-.895c.524.405 1.134.578 2.018-.37.597-.64.534-1.206.253-1.467-.562-.523-1.106-.029-1.878.482-.83.556-1.87 1.39-2.89.442-.739-.686-.722-1.883.326-3.006 1.138-1.22 2.337-1.186 3.177-.52l-.835.895c-.41-.265-.933-.425-1.605.295-.515.552-.582 1.047-.266 1.341.457.425.959-.043 1.714-.553Z" fill="#FAFAFA"/><path d="M23.243 13.593c-.323-.536-1.016-1.035-1.982-.552-1.106.552-1.105 1.732-.588 2.762.516 1.03 1.452 1.742 2.568 1.185.966-.483.987-1.325.723-1.957l1.127-.563c.55 1.308.04 2.73-1.387 3.442-1.643.82-3.297.172-4.159-1.544-.86-1.716-.39-3.427 1.242-4.242 1.428-.713 2.82-.268 3.583.906l-1.127.563ZM28.822 16.435c-1.915.14-3.174-1.104-3.314-3.007-.14-1.903.923-3.316 2.838-3.455 1.915-.14 3.174 1.104 3.314 3.007.14 1.903-.923 3.316-2.838 3.455Zm-.076-1.029c1.197-.087 1.75-1.078 1.657-2.334-.093-1.269-.784-2.157-1.981-2.07-1.197.087-1.75 1.066-1.657 2.335.093 1.256.785 2.156 1.981 2.07ZM37.349 11.448l1.197.394-1.925 5.822-1.197-.394.249-.752-.023-.008c-.458.354-1.213.611-2.216.28-1.082-.357-1.73-1.266-1.29-2.599l1.33-4.022 1.208.399-1.216 3.68c-.26.786-.095 1.397.725 1.667.923.305 1.7-.058 1.987-.924l1.171-3.543ZM43.394 15.008c.865.742 1.118 1.828.203 2.892l-2.762 3.212-.966-.828 2.527-2.938c.54-.628.62-1.255-.036-1.817-.738-.633-1.595-.593-2.19.098l-2.433 2.83-.957-.82 3.998-4.649.957.82-.517.6.019.016c.559-.153 1.355-.103 2.157.584ZM46.844 21.267l-.611-.976-2.82 1.76c-.59.368-.484.697-.01 1.363l-.875.546a3.656 3.656 0 0 1-.54-.68c-.536-.855-.442-1.564.657-2.25l2.912-1.817-.471-.753.875-.546.472.753 1.639-1.023.675 1.078-1.639 1.022.612.977-.876.546ZM32.917 27.667c-5.25 1.166-6.475 4.765-7.689 7.781l1.103.385.554-1.341c.28.099.572.175.782.175 6.416 0 8.166-9.917 8.166-9.917-.583 1.167-4.666 1.313-7.583 1.896s-4.083 3.062-4.083 4.229c0 1.167 1.02 2.188 1.02 2.188 1.896-5.396 7.73-5.396 7.73-5.396Z" fill="#FAFAFA"/></symbol><symbol id="minus" viewBox="0 0 19 18" fill="none"><path d="M4.25 9h10.5" stroke-width="1.5" stroke-linecap="round" stroke-linejoin="round"/></symbol><symbol id="plus" viewBox="0 0 18 18" fill="none"><path d="M9 3.75v10.5M3.75 9h10.5" stroke-width="1.5" stroke-linecap="round" stroke-linejoin="round"/></symbol></defs></svg>